<mxfile host="app.diagrams.net" modified="2023-10-02T15:34:09.308Z" agent="Mozilla/5.0 (X11; Linux x86_64; rv:102.0) Gecko/20100101 Firefox/102.0" version="21.8.2" etag="IqE0d7z_lLz69LqiuDPE" type="github">
  <diagram name="PÃ¡gina-1" id="NjPrhESFEEXa5DMbbfPY">
    <mxGraphModel>
      <root>
        <mxCell id="0" />
        <mxCell id="1" parent="0" />
      </root>
    </mxGraphModel>
  </diagram>
</mxfile>
